<svg width="19" height="23" viewBox="0 0 19 23" fill="none" xmlns="http://www.w3.org/2000/svg">
<path d="M15.769 12.3008C15.7907 10.6198 16.6934 9.02916 18.1256 8.1487C17.2221 6.85838 15.7088 6.04028 14.1344 5.99102C12.4552 5.81476 10.8272 6.99585 9.97149 6.99585C9.09922 6.99585 7.78172 6.00852 6.36299 6.03771C4.51374 6.09745 2.78977 7.14884 1.89007 8.76558C-0.0439276 12.114 1.39866 17.035 3.25127 19.7417C4.17817 21.067 5.26145 22.5475 6.6789 22.495C8.06596 22.4374 8.584 21.6105 10.2583 21.6105C11.9171 21.6105 12.4031 22.495 13.8493 22.4616C15.3377 22.4374 16.2754 21.1303 17.1698 19.7924C17.8358 18.8481 18.3483 17.8044 18.6882 16.6999C16.9391 15.9601 15.771 14.1999 15.769 12.3008Z" fill="white"/>
<path d="M13.0373 4.21102C13.8489 3.23681 14.2487 1.98463 14.1518 0.720398C12.912 0.850618 11.7668 1.44318 10.9443 2.38001C10.14 3.29534 9.72143 4.52549 9.80056 5.7414C11.0408 5.75417 12.2601 5.17767 13.0373 4.21102Z" fill="white"/>
</svg>
