<svg width="44" height="45" viewBox="0 0 44 45" fill="none" xmlns="http://www.w3.org/2000/svg">
<g clip-path="url(#clip0_66_2053)">
<path d="M31.1581 15.5308L30.6873 13.9992C30.0893 12.2595 28.1776 11.3284 26.4174 11.9195C25.4272 12.252 24.6496 13.0206 24.3132 13.9992L23.8424 15.5308C23.4462 16.8224 23.3631 18.1881 23.5997 19.5173C23.8154 20.6365 24.5343 21.5979 25.5533 22.1303L25.026 33.7804C24.9554 34.4307 25.1688 35.0798 25.6127 35.5649C26.5672 36.5969 28.1875 36.6686 29.2316 35.7252C29.288 35.6742 29.3421 35.6207 29.3937 35.5649C29.8277 35.0936 30.0407 34.4634 29.9804 33.829L29.4502 22.1289C30.4678 21.5962 31.1854 20.6354 31.4008 19.5173C31.6374 18.1881 31.5543 16.8224 31.1581 15.5308ZM29.9562 19.2651C29.7974 20.0691 29.2177 20.7288 28.4345 20.9967C28.1372 21.1071 27.9458 21.3942 27.9601 21.7077L28.5174 33.9435C28.5431 34.1835 28.4629 34.4228 28.2974 34.6002C27.8558 35.0323 27.1447 35.0323 26.7031 34.6002C26.5293 34.4084 26.4504 34.1504 26.4875 33.8956L27.0405 21.7077C27.0548 21.3942 26.8633 21.1071 26.566 20.9967C25.7828 20.7288 25.2031 20.0691 25.0443 19.2651C24.8482 18.1615 24.9173 17.0278 25.246 15.9555L25.7168 14.4233C26.0811 13.4497 27.1748 12.9524 28.1599 13.3125C28.6806 13.5028 29.0911 13.9086 29.2837 14.4233L29.7545 15.9555C30.0829 17.0279 30.152 18.1615 29.9562 19.2651Z" fill="#363853"/>
<path d="M19.7999 11.7458C19.3949 11.7458 19.0666 12.0704 19.0666 12.4707V18.694L17.0814 20.6561C16.9346 20.8007 16.8565 21.0001 16.8666 21.2048L17.5082 33.8892C17.5235 34.1627 17.4231 34.4303 17.231 34.6278C16.8296 35.0281 16.1758 35.031 15.7708 34.6341C15.7686 34.632 15.7665 34.6299 15.7644 34.6278C15.5722 34.4303 15.4718 34.1627 15.4872 33.8892L16.1332 21.2048C16.1435 21.0002 16.0657 20.8009 15.9191 20.6561L13.9332 18.694V12.4707C13.9332 12.0704 13.6049 11.7458 13.1999 11.7458C12.7949 11.7458 12.4666 12.0704 12.4666 12.4707V18.9941C12.4666 19.1863 12.5439 19.3706 12.6814 19.5065L14.6512 21.4541L14.0256 33.8189C13.9591 35.1695 15.0129 36.3178 16.3793 36.3836C17.7458 36.4494 18.9076 35.4078 18.9742 34.0572C18.9781 33.9778 18.9781 33.8983 18.9742 33.819L18.3486 21.4542L20.3184 19.5066C20.4559 19.3707 20.5332 19.1864 20.5332 18.9942V12.4708C20.5332 12.0704 20.2049 11.7458 19.7999 11.7458Z" fill="#363853"/>
<path d="M15.4001 11.7458C14.9951 11.7458 14.6667 12.0704 14.6667 12.4707V18.2693C14.6667 18.6695 14.9951 18.9941 15.4001 18.9941C15.8051 18.9941 16.1334 18.6695 16.1334 18.2693V12.4707C16.1334 12.0704 15.8051 11.7458 15.4001 11.7458Z" fill="#363853"/>
<path d="M17.6 11.7458C17.195 11.7458 16.8667 12.0704 16.8667 12.4707V18.2693C16.8667 18.6695 17.195 18.9941 17.6 18.9941C18.005 18.9941 18.3334 18.6695 18.3334 18.2693V12.4707C18.3334 12.0704 18.005 11.7458 17.6 11.7458Z" fill="#363853"/>
<path d="M22 0.873535C9.84977 0.873535 0 10.609 0 22.6182C0 34.6275 9.84977 44.3629 22 44.3629C34.1502 44.3629 44 34.6275 44 22.6182C43.9863 10.6146 34.1446 0.887126 22 0.873535ZM22 42.9133C10.6597 42.9133 1.46667 33.8269 1.46667 22.6182C1.46667 11.4096 10.6597 2.32318 22 2.32318C33.3403 2.32318 42.5333 11.4096 42.5333 22.6182C42.5204 33.8215 33.3349 42.9005 22 42.9133Z" fill="#363853"/>
<path d="M24.3804 36.2246C24.3411 35.826 23.9824 35.5344 23.5793 35.5733C23.5698 35.5742 23.5604 35.5753 23.551 35.5766L23.5539 35.5758C22.5214 35.6944 21.4785 35.6944 20.446 35.5758C20.0436 35.5292 19.6792 35.8139 19.632 36.2118C19.5848 36.6098 19.8727 36.9701 20.2752 37.0168C21.4202 37.1491 22.5768 37.1491 23.7218 37.0168C24.1249 36.978 24.4198 36.6233 24.3804 36.2246Z" fill="#363853"/>
<path d="M33.2201 13.2781C32.9598 12.9714 32.4973 12.9313 32.187 13.1886C32.186 13.1894 32.1849 13.1903 32.1838 13.1911C31.8743 13.4491 31.8349 13.9063 32.0958 14.2124C36.5174 19.4003 36.1792 27.0716 31.3178 31.8597C31.0309 32.1423 31.03 32.6013 31.3159 32.8849C31.6019 33.1685 32.0663 33.1693 32.3532 32.8867C37.7558 27.5672 38.1326 19.0431 33.2201 13.2781Z" fill="#363853"/>
<path d="M17.0859 10.4551C17.0855 10.4551 17.085 10.4541 17.0846 10.4541C17.0838 10.4541 17.0831 10.4551 17.0823 10.4551H17.0859Z" fill="#363853"/>
<path d="M25.4593 8.52701C22.5933 7.84812 19.5876 8.0306 16.8272 9.05106C16.4481 9.19195 16.2564 9.60999 16.3989 9.98463C16.5064 10.267 16.7795 10.454 17.0847 10.4542C17.1724 10.4538 17.2593 10.4379 17.3413 10.4072C19.8271 9.4884 22.5338 9.32432 25.1146 9.93607C25.5083 10.0301 25.9046 9.79101 25.9997 9.40187C26.0949 9.01273 25.853 8.62106 25.4593 8.52701Z" fill="#363853"/>
<path d="M12.6492 31.8235C10.1771 29.3842 8.79154 26.071 8.79997 22.6183C8.79273 19.8598 9.67677 17.1711 11.3234 14.9439C11.5667 14.6239 11.5016 14.1695 11.1778 13.9289C10.854 13.6884 10.3943 13.7528 10.151 14.0728C10.1466 14.0785 10.1424 14.0842 10.1383 14.09C5.89845 19.8513 6.52233 27.8036 11.6101 32.8499C11.8968 33.1335 12.362 33.1337 12.6489 32.8503C12.9358 32.5669 12.936 32.1071 12.6492 31.8235Z" fill="#363853"/>
</g>
<defs>
<clipPath id="clip0_66_2053">
<rect width="44" height="43.4894" fill="white" transform="translate(0 0.873535)"/>
</clipPath>
</defs>
</svg>
