<svg width="63" height="63" viewBox="0 0 63 63" fill="none" xmlns="http://www.w3.org/2000/svg">
<g clip-path="url(#clip0_66_1997)">
<path d="M61.8701 31.1174C61.8679 31.4473 61.6771 31.7474 61.3789 31.8883L27.1399 48.1286C26.7992 49.5417 25.8125 50.7795 24.37 51.3772C21.9753 52.369 19.22 51.2278 18.228 48.8331C15.8892 43.1862 14.7031 37.224 14.7031 31.1119C14.7031 24.9999 15.889 19.0377 18.228 13.3908C18.471 12.8044 18.8195 12.2933 19.2426 11.8701C20.5477 10.5652 22.5617 10.0976 24.37 10.8468C25.5867 11.3508 26.479 12.3104 26.9332 13.4463L61.389 30.3403C61.6852 30.4855 61.8722 30.7875 61.8701 31.1174ZM31.0339 44.3794L34.6625 42.6581C34.6419 42.0095 34.3344 41.3958 33.8073 40.9913C33.343 40.6352 32.7678 40.481 32.1878 40.5573C31.6077 40.6337 31.0924 40.9312 30.7359 41.3956C30.3798 41.8597 30.2256 42.4348 30.302 43.0149C30.3723 43.5494 30.6309 44.0288 31.0339 44.3794ZM23.7124 12.4348C22.1932 11.8055 20.4451 12.5296 19.8162 14.0487C15.2583 25.0521 15.2584 37.1718 19.8161 48.1753C20.1209 48.9112 20.694 49.4843 21.43 49.7892C22.1658 50.094 22.9763 50.094 23.7122 49.7892C24.4481 49.4843 25.0213 48.9112 25.3261 48.1753C25.6309 47.4394 25.6309 46.6289 25.3261 45.893C23.3751 41.1831 22.3859 36.2101 22.3859 31.112C22.3859 26.0139 23.3752 21.0409 25.3261 16.3309C25.9554 14.8118 25.2315 13.0639 23.7124 12.4348ZM47.5385 25.4635C47.4848 25.5198 47.4329 25.5781 47.3852 25.6402C47.0291 26.1043 46.875 26.6794 46.9514 27.2594C47.0277 27.8395 47.3255 28.3552 47.7895 28.7113C48.7478 29.4465 50.1252 29.2653 50.8609 28.3069C51.0878 28.0112 51.2317 27.6645 51.2868 27.3012L47.5385 25.4635ZM52.8723 28.0788C52.7374 28.5361 52.5195 28.9687 52.2244 29.3533C50.9126 31.0641 48.4533 31.3871 46.7432 30.0749C45.9148 29.4392 45.3835 28.5191 45.2472 27.4838C45.116 26.4866 45.3672 25.4981 45.9539 24.6865L41.2144 22.3626L40.8913 24.8175C40.8292 25.2879 40.3976 25.6194 39.9271 25.5573C39.4565 25.4954 39.1253 25.0637 39.1873 24.5931L39.5861 21.5641L27.2596 15.5202C27.2252 16.0127 27.1134 16.5078 26.9143 16.9885C23.1419 26.0962 23.1419 36.1275 26.9143 45.235C27.0456 45.5517 27.1383 45.8749 27.197 46.1993L29.4045 45.1522C28.971 44.6051 28.6915 43.9493 28.5981 43.2393C28.4617 42.2041 28.7368 41.1776 29.3725 40.3493C29.479 40.2105 29.5932 40.0803 29.7148 39.9586C30.3194 39.3541 31.1017 38.9668 31.9635 38.8532C32.9989 38.7169 34.0251 38.992 34.8537 39.6277C35.5973 40.1984 36.0949 41.0027 36.2898 41.8863L46.5368 37.0259L46.1319 36.0484C45.9949 35.7174 46.0799 35.3499 46.3183 35.1115C46.3958 35.034 46.4895 34.9702 46.597 34.9256C47.0355 34.7439 47.5383 34.9523 47.7199 35.3907L48.0917 36.2883L59.0323 31.099L52.8723 28.0788Z" fill="#363853"/>
<path d="M21.3734 39.3602C21.3744 39.3648 21.3771 39.3776 21.378 39.3823C21.471 39.8475 21.1694 40.299 20.7043 40.3924C20.2399 40.4855 19.7876 40.1844 19.6929 39.7207C19.6305 39.4256 19.7277 39.1333 19.9266 38.9344C20.0391 38.8219 20.1841 38.7393 20.3511 38.703C20.8149 38.6022 21.2726 38.8965 21.3734 39.3602Z" fill="#363853"/>
<path d="M21.9587 41.794C22.4048 43.4245 22.9591 45.0434 23.6062 46.6057C23.7879 47.0443 23.5793 47.547 23.1411 47.7285C22.7026 47.9102 22.1999 47.7019 22.0184 47.2634C21.3438 45.6348 20.766 43.9471 20.301 42.2476C20.2166 41.939 20.3115 41.6236 20.5226 41.4125C20.6247 41.3104 20.754 41.2327 20.903 41.1919C21.3609 41.0667 21.8336 41.3362 21.9587 41.794Z" fill="#363853"/>
<path d="M42.3513 35.4321C42.2468 35.5684 42.1325 35.6988 42.0117 35.8196C40.6313 37.2 38.4209 37.3437 36.8702 36.1538C35.1601 34.8416 34.8363 32.3828 36.1485 30.6727C36.253 30.5363 36.3673 30.406 36.4881 30.2852C37.8685 28.9048 40.0789 28.7611 41.6297 29.9511C43.3397 31.2633 43.6635 33.722 42.3513 35.4321ZM40.5834 31.3146C39.7144 30.6478 38.4764 30.7277 37.7035 31.5006C37.6356 31.5685 37.5711 31.642 37.5121 31.719C36.7768 32.6773 36.9583 34.0549 37.9166 34.7903C38.7855 35.457 40.0235 35.377 40.7963 34.6042C40.8643 34.5363 40.9287 34.4628 40.9877 34.3858C41.7229 33.4275 41.5416 32.0498 40.5834 31.3146Z" fill="#363853"/>
<path d="M34.6346 28.0316C34.53 28.1681 34.4158 28.2984 34.295 28.4192C32.9145 29.7996 30.7041 29.9433 29.1534 28.7533C28.3249 28.1177 27.7937 27.1976 27.6573 26.1622C27.521 25.127 27.796 24.1006 28.4316 23.2721C28.5361 23.1359 28.6504 23.0057 28.7712 22.8849C30.1516 21.5045 32.3621 21.3607 33.9129 22.5507C35.623 23.8627 35.9466 26.3215 34.6346 28.0316ZM32.8666 23.9141C31.9976 23.2473 30.7595 23.3273 29.9866 24.1001C29.9188 24.168 29.8543 24.2415 29.7953 24.3184C29.4392 24.7827 29.2851 25.3578 29.3615 25.9379C29.4378 26.5179 29.7355 27.0335 30.1997 27.3898C31.0687 28.0565 32.3068 27.9765 33.0796 27.2038C33.1475 27.1358 33.212 27.0624 33.271 26.9854C34.0061 26.0272 33.8247 24.6494 32.8666 23.9141Z" fill="#363853"/>
<path d="M33.1441 34.557L31.5223 36.6706C31.2339 37.0474 30.6939 37.1182 30.3174 36.8293C29.9408 36.5404 29.8698 36.001 30.1587 35.6244L31.7805 33.5108C31.8039 33.4803 31.8289 33.4519 31.8553 33.4254C32.1556 33.1252 32.6393 33.0866 32.9853 33.3521C33.362 33.6409 33.4331 34.1804 33.1441 34.557Z" fill="#363853"/>
<path d="M27.7128 31.0195L28.8011 32.4377C29.0901 32.8143 29.0192 33.3537 28.6425 33.6426C28.2659 33.9315 27.7266 33.8605 27.4376 33.484L26.3493 32.0657C26.0837 31.7197 26.1223 31.236 26.4226 30.9356C26.449 30.9092 26.4774 30.8842 26.5079 30.8609C26.8845 30.572 27.4238 30.6429 27.7128 31.0195Z" fill="#363853"/>
</g>
<defs>
<clipPath id="clip0_66_1997">
<rect width="44" height="44" fill="white" transform="matrix(0.707107 -0.707107 -0.707107 -0.707107 31.1128 62.2253)"/>
</clipPath>
</defs>
</svg>
