<svg width="44" height="44" viewBox="0 0 44 44" fill="none" xmlns="http://www.w3.org/2000/svg">
<g clip-path="url(#clip0_66_2088)">
<path d="M41.8 6.59977H40.3333V5.13307C40.3333 3.91809 39.3483 2.93307 38.1333 2.93307H36.3865L35.3254 0.810846C35.0787 0.312236 34.5697 -0.0024667 34.0135 -0.000232321H33C32.19 -0.000232321 31.5333 0.656416 31.5333 1.46646V2.93316H23.4666C22.2515 2.93316 21.2666 3.91809 21.2666 5.13316V6.59977H19.8C18.585 6.59977 17.6 7.58478 17.6 8.79977V10.2665C17.6 11.0765 18.2567 11.7332 19.0667 11.7332H19.1445L20.0025 19.3099L16.4692 18.4798C16.291 18.2055 16.1025 17.9335 15.8929 17.6665L14.6462 12.3007C14.5692 11.9689 14.274 11.7338 13.9334 11.7331H9.71962C7.73154 9.98115 5.38193 9.18915 3.60947 9.71053L2.53293 8.53723C2.1261 8.0931 1.48698 7.9471 0.9277 8.17053C0.367474 8.38641 -0.00154203 8.92541 4.84458e-06 9.52577V41.8145C0.00163766 43.0207 0.979091 43.9981 2.18531 43.9998H38.1333C38.5061 43.9995 38.8193 43.7197 38.8615 43.3493L42.4542 11.7331H42.5334C43.3434 11.7331 44.0001 11.0764 44.0001 10.2664V8.79977C44 7.58478 43.0151 6.59977 41.8 6.59977ZM33 1.46646H34.0135L34.7468 2.93316H33V1.46646ZM22.7333 5.13307C22.7333 4.72805 23.0617 4.39977 23.4666 4.39977H38.1333C38.5383 4.39977 38.8666 4.72805 38.8666 5.13307V6.59977H22.7333V5.13307ZM20.68 20.9731L20.7262 20.9818L21.3188 21.1226L21.7162 25.2843C20.5645 24.4689 19.1864 24.0345 17.7753 24.042C18.047 22.7481 17.9032 21.4016 17.3646 20.1942L20.68 20.9731ZM22.1129 27.4595L22.1225 27.4675C22.3881 27.7133 22.6403 27.9733 22.8778 28.2463C23.7502 29.2198 24.3917 30.3776 24.7544 31.6335C24.8783 32.071 24.9422 32.5232 24.9443 32.9778L18.095 25.508C19.6184 25.6786 21.037 26.3675 22.1129 27.4595ZM14.3851 18.1395V18.1381C15.9676 19.9568 16.7046 22.1414 16.3549 23.6095L8.8917 15.4732C10.3972 15.1365 12.6867 16.194 14.3851 18.1395ZM13.3467 13.1998L13.9334 15.6968C13.344 15.2369 12.7017 14.8494 12.0202 14.5425C11.7429 14.0737 11.433 13.625 11.0925 13.1998H13.3467ZM9.66024 13.7454H9.66316C9.724 13.8151 9.77393 13.8921 9.83254 13.9654C9.1441 13.902 8.45093 14.0184 7.821 14.3035L4.80623 11.0159C6.28032 11.0372 8.20386 12.0741 9.66024 13.7454ZM30.7371 42.1024C30.6236 42.3635 30.3661 42.5326 30.0813 42.5332H23.4666H2.18531C1.78836 42.5332 1.46661 42.2114 1.46661 41.8145L1.45338 9.53316L16.1722 25.5814V25.5851L24.8167 35.0092L24.8262 35.0202L29.568 40.1916C29.5848 40.2136 29.6025 40.2356 29.6215 40.2568L30.6049 41.329C30.7988 41.5376 30.8506 41.8412 30.7371 42.1024ZM26.1976 34.3447C26.3319 33.9068 26.4001 33.4512 26.4 32.9932C26.7853 33.3181 27.1442 33.6729 27.4736 34.0543C27.8833 34.5224 28.247 35.0288 28.5597 35.5665C28.9879 36.2865 29.2907 37.0741 29.4551 37.8955L26.1976 34.3447ZM37.4785 42.5332H32.1362C32.4108 41.7733 32.2366 40.9236 31.6852 40.3332L30.9467 39.5265C31.0916 38.2988 30.8936 37.0551 30.3747 35.9332H38.2287L37.4785 42.5332ZM38.3952 34.4665H29.5952C29.2941 33.9835 28.9568 33.5241 28.5861 33.0922C27.8644 32.2544 27.0171 31.5338 26.0744 30.9559C25.6435 29.5972 24.9311 28.3446 23.9837 27.2797C23.7637 27.0304 23.5437 26.7979 23.3127 26.5742L22.7334 20.4634C22.7036 20.1507 22.478 19.8919 22.1724 19.8195L21.5226 19.6655L21.3686 18.3331H40.2292L38.3952 34.4665ZM40.3957 16.8665H21.2022L20.6214 11.7332H40.9787L40.3957 16.8665ZM42.5333 10.2665H19.0667V8.79977C19.0667 8.39474 19.395 8.06646 19.8 8.06646H41.8C42.205 8.06646 42.5333 8.39474 42.5333 8.79977V10.2665Z" fill="#363853"/>
<path d="M31.1007 32.2667C31.1424 32.2667 31.1835 32.2608 31.2246 32.2594C31.2356 32.2594 31.2466 32.2667 31.2576 32.2667C31.2944 32.2644 31.3309 32.2593 31.3668 32.2513C32.5148 32.1738 33.5725 31.6017 34.2657 30.6834C35.1896 29.3853 35.4537 27.7299 34.9799 26.2087C34.878 25.8288 34.7848 25.4563 34.6947 25.0962C34.1227 22.8031 33.5764 20.6404 31.2597 20.543C31.2363 20.543 31.2143 20.5386 31.1908 20.5386C31.1674 20.5386 31.1329 20.5334 31.1006 20.5334C28.509 20.5334 26.3999 23.1654 26.3999 26.4001C26.3999 29.6349 28.5091 32.2667 31.1007 32.2667ZM31.6683 22.11C32.4265 22.4077 32.7602 23.4014 33.2721 25.451C33.3638 25.8177 33.4591 26.202 33.5654 26.5914C33.9164 27.6723 33.7449 28.8549 33.1011 29.7916C32.8675 30.0981 32.5683 30.3486 32.2255 30.5249C32.2008 29.2643 31.9525 28.0181 31.4922 26.8443C31.4189 26.6155 31.3455 26.3947 31.281 26.1843C30.8543 24.7962 31.3544 22.9973 31.6683 22.11ZM30.0923 22.22C29.6151 23.6363 29.5417 25.1577 29.8804 26.6134C29.9478 26.8334 30.0226 27.0614 30.1004 27.2983C30.4671 28.4174 30.9071 29.7704 30.7274 30.7662C29.1199 30.5154 27.8666 28.6542 27.8666 26.4C27.8667 24.453 28.8017 22.8 30.0923 22.22Z" fill="#363853"/>
<path d="M3.88152 38.563L3.36305 39.0815C3.17244 39.2657 3.09596 39.5383 3.16308 39.7947C3.23019 40.0511 3.43043 40.2514 3.68678 40.3184C3.94322 40.3855 4.21581 40.309 4.39998 40.1184L4.91844 39.6C5.19636 39.3122 5.19241 38.8548 4.9095 38.572C4.62668 38.2891 4.16923 38.2851 3.88152 38.563Z" fill="#363853"/>
<path d="M10.893 33.6261C11.1795 33.3396 11.1795 32.875 10.893 32.5884C10.6065 32.3019 10.1419 32.3019 9.85532 32.5884L9.33686 33.1069C9.15149 33.2921 9.07904 33.5622 9.14676 33.8153C9.21448 34.0684 9.41214 34.2662 9.66522 34.3341C9.91831 34.402 10.1884 34.3297 10.3738 34.1445L10.893 33.6261Z" fill="#363853"/>
<path d="M4.40007 31.7481L3.88161 32.2666C3.691 32.4507 3.61452 32.7233 3.68163 32.9798C3.74875 33.2361 3.94898 33.4363 4.20534 33.5035C4.46177 33.5706 4.73437 33.4941 4.91853 33.3035L5.43699 32.785C5.71491 32.4973 5.71096 32.0399 5.42806 31.757C5.14523 31.4741 4.68779 31.4702 4.40007 31.7481Z" fill="#363853"/>
<path d="M4.40007 26.6147L3.88161 27.1332C3.691 27.3174 3.61452 27.59 3.68163 27.8464C3.74875 28.1027 3.94898 28.303 4.20534 28.3701C4.46177 28.4372 4.73437 28.3607 4.91853 28.1701L5.43699 27.6517C5.71491 27.3639 5.71096 26.9065 5.42806 26.6237C5.14523 26.3409 4.68779 26.3369 4.40007 26.6147Z" fill="#363853"/>
<path d="M11.0002 38.563L10.4817 39.0815C10.2911 39.2657 10.2146 39.5383 10.2817 39.7947C10.3488 40.0511 10.5491 40.2514 10.8054 40.3184C11.0619 40.3855 11.3345 40.309 11.5186 40.1184L12.0371 39.6C12.315 39.3122 12.3111 38.8548 12.0282 38.572C11.7453 38.2891 11.2879 38.2851 11.0002 38.563Z" fill="#363853"/>
<path d="M16.3481 38.563L15.8296 39.0815C15.639 39.2656 15.5625 39.5382 15.6296 39.7947C15.6967 40.0511 15.897 40.2513 16.1533 40.3184C16.4098 40.3855 16.6824 40.309 16.8665 40.1184L17.385 39.5999C17.6629 39.3122 17.659 38.8548 17.376 38.572C17.0931 38.2891 16.6358 38.2851 16.3481 38.563Z" fill="#363853"/>
</g>
<defs>
<clipPath id="clip0_66_2088">
<rect width="44" height="44" fill="white"/>
</clipPath>
</defs>
</svg>
