<svg width="208" height="34" viewBox="0 0 208 34" fill="none" xmlns="http://www.w3.org/2000/svg">
<circle cx="91.0192" cy="17" r="6.05769" fill="#FF7A50"/>
<circle opacity="0.2" cx="65.0577" cy="17" r="6.05769" fill="#363853"/>
<circle opacity="0.2" cx="116.981" cy="17" r="6.05769" fill="#363853"/>
<circle opacity="0.2" cx="142.942" cy="17" r="6.05769" fill="#363853"/>
<g clip-path="url(#clip0_0_356)">
<path d="M208 17C208 7.62563 200.374 -3.33327e-07 191 -7.43094e-07C181.626 -1.15286e-06 174 7.62563 174 17C174 26.3744 181.627 34 191 34C200.373 34 208 26.3744 208 17ZM176.634 17C176.634 9.07939 183.078 2.6336 191 2.6336C198.922 2.63361 205.366 9.07939 205.366 17C205.366 24.9219 198.922 31.3664 191 31.3664C183.078 31.3664 176.634 24.9206 176.634 17Z" fill="#FF7A50"/>
<path d="M189.183 24.5189L195.767 17.9349C196.278 17.4213 196.278 16.5918 195.767 16.0782L189.183 9.49413C188.69 9.07145 187.962 9.07145 187.47 9.49413C186.918 9.96688 186.853 10.7991 187.326 11.3509L192.975 17L187.326 22.6622C186.815 23.1758 186.815 24.0054 187.326 24.5189C187.84 25.0299 188.669 25.0299 189.183 24.5189Z" fill="#FF7A50"/>
</g>
<g clip-path="url(#clip1_0_356)">
<path d="M7.43094e-07 17C3.33327e-07 7.62563 7.62563 -3.33327e-07 17 -7.43094e-07C26.3744 -1.15286e-06 34 7.62563 34 17C34 26.3744 26.373 34 17 34C7.62696 34 1.15286e-06 26.3744 7.43094e-07 17ZM31.3664 17C31.3664 9.07939 24.9219 2.6336 17 2.6336C9.07807 2.63361 2.63361 9.07939 2.63361 17C2.63361 24.9219 9.07807 31.3664 17 31.3664C24.9219 31.3664 31.3664 24.9206 31.3664 17Z" fill="#D1D2DC"/>
<path d="M18.8171 24.5189L12.2331 17.9349C11.7222 17.4213 11.7222 16.5918 12.2331 16.0782L18.8171 9.49413C19.3096 9.07145 20.0378 9.07145 20.5303 9.49413C21.0821 9.96688 21.1465 10.7991 20.6738 11.3509L15.0247 17L20.6739 22.6622C21.1848 23.1758 21.1848 24.0054 20.6739 24.5189C20.1603 25.0299 19.3307 25.0299 18.8171 24.5189Z" fill="#D1D2DC"/>
</g>
<defs>
<clipPath id="clip0_0_356">
<rect width="34" height="34" fill="white" transform="translate(208) rotate(90)"/>
</clipPath>
<clipPath id="clip1_0_356">
<rect width="34" height="34" fill="white" transform="matrix(4.37114e-08 1 1 -4.37114e-08 0 0)"/>
</clipPath>
</defs>
</svg>
