<svg width="195" height="39" viewBox="0 0 195 39" fill="none" xmlns="http://www.w3.org/2000/svg">
<circle cx="19.5" cy="19.5" r="19.5" fill="#EEEEEF"/>
<path d="M16.9149 29.7631V20.1316H14.3682V16.6638H16.9149V13.7018C16.9149 11.3743 18.4193 9.23682 21.8858 9.23682C23.2893 9.23682 24.3271 9.37137 24.3271 9.37137L24.2453 12.6097C24.2453 12.6097 23.1869 12.5994 22.0319 12.5994C20.7819 12.5994 20.5816 13.1755 20.5816 14.1316V16.6638H24.3447L24.181 20.1316H20.5816V29.7631H16.9149Z" fill="#363853"/>
<circle cx="71.5" cy="19.5" r="19.5" fill="#EEEEEF"/>
<path d="M81.7631 13.2704C81.0083 13.596 80.1868 13.8304 79.3407 13.9216C80.2192 13.3998 80.877 12.5753 81.1908 11.6028C80.3665 12.0932 79.4635 12.4371 78.5217 12.6192C78.1282 12.1984 77.6521 11.8632 77.1233 11.6344C76.5945 11.4057 76.0243 11.2883 75.4481 11.2896C73.117 11.2896 71.2422 13.1791 71.2422 15.4979C71.2422 15.8236 71.2817 16.1492 71.3458 16.4625C67.8553 16.2799 64.7422 14.6124 62.6725 12.0592C62.2954 12.7033 62.0978 13.4367 62.1002 14.1831C62.1002 15.6435 62.8427 16.9312 63.975 17.6885C63.3077 17.6622 62.6561 17.4788 62.0731 17.1532V17.205C62.0731 19.25 63.5186 20.9447 65.4452 21.3344C65.0835 21.4284 64.7113 21.4764 64.3376 21.4775C64.0638 21.4775 63.8048 21.4503 63.5433 21.4133C64.0761 23.0809 65.6277 24.2921 67.4754 24.3316C66.0298 25.4638 64.2192 26.1299 62.2531 26.1299C61.9004 26.1299 61.5748 26.1175 61.2368 26.0781C63.1017 27.2745 65.3145 27.9652 67.6974 27.9652C75.4333 27.9652 79.6663 21.5564 79.6663 15.9938C79.6663 15.8112 79.6663 15.6287 79.654 15.4461C80.473 14.8467 81.1908 14.1042 81.7631 13.2704Z" fill="#363853"/>
<circle cx="123.5" cy="19.5" r="19.5" fill="#EEEEEF"/>
<path d="M122.984 16.7618C121.194 16.7618 119.733 18.2228 119.733 20.0132C119.733 21.8035 121.194 23.2646 122.984 23.2646C124.775 23.2646 126.236 21.8035 126.236 20.0132C126.236 18.2228 124.775 16.7618 122.984 16.7618ZM132.736 20.0132C132.736 18.6668 132.748 17.3326 132.673 15.9886C132.597 14.4275 132.241 13.0421 131.099 11.9006C129.955 10.7566 128.572 10.4029 127.011 10.3273C125.665 10.2517 124.331 10.2639 122.987 10.2639C121.64 10.2639 120.306 10.2517 118.962 10.3273C117.401 10.4029 116.016 10.7591 114.874 11.9006C113.73 13.0445 113.377 14.4275 113.301 15.9886C113.225 17.335 113.238 18.6692 113.238 20.0132C113.238 21.3572 113.225 22.6938 113.301 24.0378C113.377 25.5988 113.733 26.9843 114.874 28.1258C116.018 29.2697 117.401 29.6234 118.962 29.699C120.309 29.7747 121.643 29.7625 122.987 29.7625C124.333 29.7625 125.667 29.7747 127.011 29.699C128.572 29.6234 129.958 29.2673 131.099 28.1258C132.243 26.9818 132.597 25.5988 132.673 24.0378C132.751 22.6938 132.736 21.3596 132.736 20.0132V20.0132ZM122.984 25.0159C120.216 25.0159 117.982 22.7816 117.982 20.0132C117.982 17.2448 120.216 15.0105 122.984 15.0105C125.753 15.0105 127.987 17.2448 127.987 20.0132C127.987 22.7816 125.753 25.0159 122.984 25.0159ZM128.192 15.974C127.546 15.974 127.024 15.452 127.024 14.8056C127.024 14.1592 127.546 13.6373 128.192 13.6373C128.838 13.6373 129.36 14.1592 129.36 14.8056C129.361 14.9591 129.33 15.1111 129.272 15.2529C129.213 15.3948 129.127 15.5237 129.019 15.6322C128.91 15.7407 128.781 15.8268 128.639 15.8854C128.497 15.9441 128.345 15.9741 128.192 15.974V15.974Z" fill="#363853"/>
<circle cx="175.5" cy="19.5" r="19.5" fill="#EEEEEF"/>
<path d="M167.29 16.5996C167.29 15.7121 167.445 14.8738 167.75 14.0913C168.043 13.3312 168.476 12.6337 169.029 12.0358C169.581 11.4457 170.212 10.9355 170.904 10.5198C171.615 10.09 172.384 9.76567 173.188 9.5571C174.002 9.34348 174.839 9.23575 175.68 9.23658C176.98 9.23658 178.189 9.51148 179.31 10.059C180.417 10.5965 181.359 11.4215 182.037 12.4476C182.738 13.4913 183.086 14.6719 183.086 15.9882C183.086 16.7775 183.008 17.5498 182.849 18.3049C182.694 19.0596 182.446 19.7924 182.113 20.487C181.795 21.1594 181.379 21.7809 180.878 22.3314C180.376 22.8732 179.767 23.3057 179.09 23.6021C178.355 23.9243 177.56 24.0864 176.757 24.0778C176.199 24.0778 175.643 23.9466 175.093 23.6831C174.543 23.4208 174.148 23.0603 173.911 22.5984C173.828 22.9189 173.714 23.382 173.562 23.9877C173.416 24.5922 173.318 24.9824 173.275 25.1592C173.229 25.3348 173.145 25.628 173.021 26.034C172.938 26.3344 172.831 26.6277 172.701 26.9112L172.309 27.68C172.139 28.0099 171.949 28.3292 171.741 28.6359C171.534 28.9348 171.279 29.2918 170.974 29.7024L170.804 29.7629L170.691 29.6397C170.569 28.3473 170.506 27.5739 170.506 27.3184C170.506 26.5622 170.596 25.7135 170.774 24.7713C170.949 23.8303 171.225 22.6474 171.596 21.225C171.966 19.8037 172.179 18.9676 172.236 18.7201C171.974 18.1874 171.842 17.4916 171.842 16.6361C171.842 15.9528 172.055 15.3129 172.483 14.7106C172.912 14.1106 173.454 13.8107 174.111 13.8107C174.614 13.8107 175.004 13.9772 175.283 14.3114C175.564 14.6445 175.701 15.0642 175.701 15.5764C175.701 16.1194 175.521 16.9053 175.158 17.933C174.795 18.9619 174.615 19.7296 174.615 20.2395C174.615 20.7562 174.8 21.1885 175.169 21.5273C175.534 21.8662 176.016 22.0499 176.514 22.0394C176.966 22.0394 177.385 21.9368 177.773 21.7303C178.156 21.5299 178.488 21.2438 178.742 20.8942C179.295 20.1349 179.69 19.2716 179.902 18.3562C180.011 17.8749 180.096 17.4174 180.148 16.9874C180.204 16.5551 180.228 16.1467 180.228 15.7589C180.228 14.3365 179.777 13.2278 178.879 12.4339C177.977 11.64 176.802 11.2453 175.356 11.2453C173.713 11.2453 172.338 11.7768 171.237 12.8434C170.136 13.9065 169.581 15.2582 169.581 16.8973C169.581 17.2589 169.636 17.6079 169.74 17.9456C169.841 18.2821 169.952 18.5501 170.072 18.7486C170.19 18.9437 170.302 19.1341 170.404 19.3098C170.506 19.4855 170.56 19.6109 170.56 19.6862C170.56 19.9166 170.499 20.2166 170.377 20.5874C170.251 20.9581 170.101 21.1429 169.921 21.1429C169.904 21.1429 169.833 21.1303 169.71 21.1041C169.283 20.9767 168.898 20.7386 168.593 20.414C168.27 20.0775 168.015 19.6817 167.842 19.2482C167.669 18.8163 167.535 18.3701 167.44 17.9148C167.338 17.4839 167.287 17.0424 167.29 16.5996V16.5996Z" fill="#363853"/>
</svg>
