<svg width="120" height="20" viewBox="0 0 120 20" fill="none" xmlns="http://www.w3.org/2000/svg">
<path d="M109.665 2.72233L111.753 6.40761C111.906 6.67461 112.2 6.86002 112.538 6.90123L117.227 7.50116C117.501 7.53494 117.749 7.66185 117.917 7.85551C118.083 8.0467 118.154 8.28898 118.114 8.52713C118.081 8.72491 117.975 8.90786 117.813 9.04795L114.416 11.9413C114.167 12.1432 114.055 12.4423 114.115 12.7349L114.951 16.8025C115.04 17.2937 114.67 17.7568 114.115 17.8499C113.886 17.8821 113.651 17.8483 113.445 17.756L109.263 15.8417C108.953 15.704 108.586 15.704 108.276 15.8417L104.093 17.756C103.58 17.9958 102.943 17.8326 102.657 17.3876C102.551 17.2104 102.513 17.0085 102.548 16.8116L103.385 12.7431C103.445 12.4514 103.331 12.1506 103.084 11.9487L99.6863 9.05702C99.2821 8.7142 99.2699 8.14971 99.6591 7.79453C99.6675 7.78711 99.6769 7.77887 99.6863 7.77063C99.8476 7.62642 100.059 7.53494 100.288 7.51105L104.977 6.91029C105.314 6.86826 105.608 6.6845 105.763 6.41585L107.775 2.72233C107.954 2.40588 108.325 2.20893 108.729 2.21717H108.854C109.204 2.25425 109.509 2.44461 109.665 2.72233" fill="#FAC412"/>
<path d="M108.743 15.739C108.561 15.744 108.384 15.7868 108.225 15.8635L104.063 17.7735C103.554 17.987 102.945 17.8213 102.659 17.3935C102.553 17.2187 102.515 17.0184 102.551 16.8222L103.382 12.7624C103.438 12.4672 103.326 12.1672 103.081 11.9595L99.6824 9.06851C99.279 8.72146 99.2715 8.15185 99.6665 7.79656C99.6721 7.79161 99.6768 7.78749 99.6824 7.78337C99.8434 7.64323 100.051 7.55091 100.275 7.52206L104.967 6.91535C105.307 6.87743 105.602 6.69113 105.752 6.42074L107.791 2.68074C107.985 2.37903 108.357 2.19932 108.75 2.21828C108.743 2.46311 108.743 15.5725 108.743 15.739" fill="#FAC412"/>
<path d="M85.8134 2.72233L87.6688 6.40761C87.8055 6.67461 88.0664 6.86002 88.3673 6.90123L92.5349 7.50116C92.7782 7.53494 92.9991 7.66185 93.1483 7.85551C93.2959 8.0467 93.3592 8.28898 93.3234 8.52713C93.2942 8.72491 93.2 8.90786 93.0558 9.04795L90.036 11.9413C89.8151 12.1432 89.7151 12.4423 89.7684 12.7349L90.5119 16.8025C90.5911 17.2937 90.2619 17.7568 89.7684 17.8499C89.5651 17.8821 89.3567 17.8483 89.1733 17.756L85.4558 15.8417C85.18 15.704 84.854 15.704 84.5782 15.8417L80.8607 17.756C80.4039 17.9958 79.838 17.8326 79.5838 17.3876C79.4896 17.2104 79.4562 17.0085 79.4871 16.8116L80.2306 12.7431C80.2839 12.4514 80.183 12.1506 79.963 11.9487L76.9432 9.05702C76.5839 8.7142 76.5731 8.14971 76.919 7.79453C76.9265 7.78711 76.9348 7.77887 76.9432 7.77063C77.0865 7.62642 77.2749 7.53494 77.4783 7.51105L81.6459 6.91029C81.9459 6.86826 82.2068 6.6845 82.3443 6.41585L84.1331 2.72233C84.2923 2.40588 84.6223 2.20893 84.9807 2.21717H85.0924C85.4033 2.25425 85.6742 2.44461 85.8134 2.72233" fill="#FAC412"/>
<path d="M84.9932 15.739C84.8318 15.744 84.6745 15.7868 84.5331 15.8635L80.8338 17.7735C80.3811 17.987 79.8395 17.8213 79.5857 17.3935C79.4917 17.2187 79.4576 17.0184 79.4892 16.8222L80.228 12.7624C80.278 12.4672 80.1781 12.1672 79.961 11.9595L76.9398 9.06851C76.5812 8.72146 76.5745 8.15185 76.9256 7.79656C76.9306 7.79161 76.9348 7.78749 76.9398 7.78337C77.0829 7.64323 77.2676 7.55091 77.4665 7.52206L81.6375 6.91535C81.9396 6.87743 82.2017 6.69113 82.3348 6.42074L84.1478 2.68074C84.3201 2.37903 84.6504 2.19932 84.9998 2.21828C84.9932 2.46311 84.9932 15.5725 84.9932 15.739" fill="#FAC412"/>
<path d="M60.8134 2.72233L62.6688 6.40761C62.8055 6.67461 63.0664 6.86002 63.3673 6.90123L67.5349 7.50116C67.7782 7.53494 67.9991 7.66185 68.1483 7.85551C68.2959 8.0467 68.3592 8.28898 68.3234 8.52713C68.2942 8.72491 68.2 8.90786 68.0558 9.04795L65.036 11.9413C64.8151 12.1432 64.7151 12.4423 64.7684 12.7349L65.5119 16.8025C65.5911 17.2937 65.2619 17.7568 64.7684 17.8499C64.5651 17.8821 64.3567 17.8483 64.1733 17.756L60.4558 15.8417C60.18 15.704 59.854 15.704 59.5782 15.8417L55.8607 17.756C55.4039 17.9958 54.838 17.8326 54.5838 17.3876C54.4896 17.2104 54.4562 17.0085 54.4871 16.8116L55.2306 12.7431C55.2839 12.4514 55.183 12.1506 54.963 11.9487L51.9432 9.05702C51.5839 8.7142 51.5731 8.14971 51.919 7.79453C51.9265 7.78711 51.9348 7.77887 51.9432 7.77063C52.0865 7.62642 52.2749 7.53494 52.4783 7.51105L56.6459 6.91029C56.9459 6.86826 57.2068 6.6845 57.3443 6.41585L59.1331 2.72233C59.2923 2.40588 59.6223 2.20893 59.9807 2.21717H60.0924C60.4033 2.25425 60.6742 2.44461 60.8134 2.72233" fill="#FAC412"/>
<path d="M59.9932 15.739C59.8318 15.744 59.6745 15.7868 59.5331 15.8635L55.8338 17.7735C55.3811 17.987 54.8395 17.8213 54.5857 17.3935C54.4917 17.2187 54.4576 17.0184 54.4892 16.8222L55.228 12.7624C55.278 12.4672 55.1781 12.1672 54.961 11.9595L51.9398 9.06851C51.5812 8.72146 51.5745 8.15185 51.9256 7.79656C51.9306 7.79161 51.9348 7.78749 51.9398 7.78337C52.0829 7.64323 52.2676 7.55091 52.4665 7.52206L56.6375 6.91535C56.9396 6.87743 57.2017 6.69113 57.3348 6.42074L59.1478 2.68074C59.3201 2.37903 59.6504 2.19932 59.9998 2.21828C59.9932 2.46311 59.9932 15.5725 59.9932 15.739" fill="#FAC412"/>
<path d="M35.8134 2.72233L37.6688 6.40761C37.8055 6.67461 38.0664 6.86002 38.3673 6.90123L42.5349 7.50116C42.7782 7.53494 42.9991 7.66185 43.1483 7.85551C43.2959 8.0467 43.3592 8.28898 43.3234 8.52713C43.2942 8.72491 43.2 8.90786 43.0558 9.04795L40.036 11.9413C39.8151 12.1432 39.7151 12.4423 39.7684 12.7349L40.5119 16.8025C40.5911 17.2937 40.2619 17.7568 39.7684 17.8499C39.5651 17.8821 39.3567 17.8483 39.1733 17.756L35.4558 15.8417C35.18 15.704 34.854 15.704 34.5782 15.8417L30.8607 17.756C30.4039 17.9958 29.838 17.8326 29.5838 17.3876C29.4896 17.2104 29.4562 17.0085 29.4871 16.8116L30.2306 12.7431C30.2839 12.4514 30.183 12.1506 29.963 11.9487L26.9432 9.05702C26.5839 8.7142 26.5731 8.14971 26.919 7.79453C26.9265 7.78711 26.9348 7.77887 26.9432 7.77063C27.0865 7.62642 27.2749 7.53494 27.4783 7.51105L31.6459 6.91029C31.9459 6.86826 32.2068 6.6845 32.3443 6.41585L34.1331 2.72233C34.2923 2.40588 34.6223 2.20893 34.9807 2.21717H35.0924C35.4033 2.25425 35.6742 2.44461 35.8134 2.72233" fill="#FAC412"/>
<path d="M34.9932 15.739C34.8318 15.744 34.6745 15.7868 34.5331 15.8635L30.8338 17.7735C30.3811 17.987 29.8395 17.8213 29.5857 17.3935C29.4917 17.2187 29.4576 17.0184 29.4892 16.8222L30.228 12.7624C30.278 12.4672 30.1781 12.1672 29.961 11.9595L26.9398 9.06851C26.5812 8.72146 26.5745 8.15185 26.9256 7.79656C26.9306 7.79161 26.9348 7.78749 26.9398 7.78337C27.0829 7.64323 27.2676 7.55091 27.4665 7.52206L31.6375 6.91535C31.9396 6.87743 32.2017 6.69113 32.3348 6.42074L34.1478 2.68074C34.3201 2.37903 34.6504 2.19932 34.9998 2.21828C34.9932 2.46311 34.9932 15.5725 34.9932 15.739" fill="#FAC412"/>
<path d="M12.1653 2.72233L14.2526 6.40761C14.4064 6.67461 14.6999 6.86002 15.0384 6.90123L19.7269 7.50116C20.0007 7.53494 20.2492 7.66185 20.4171 7.85551C20.583 8.0467 20.6543 8.28898 20.614 8.52713C20.5812 8.72491 20.4752 8.90786 20.313 9.04795L16.9157 11.9413C16.6672 12.1432 16.5547 12.4423 16.6147 12.7349L17.4511 16.8025C17.5402 17.2937 17.1698 17.7568 16.6147 17.8499C16.3859 17.8821 16.1515 17.8483 15.9452 17.756L11.763 15.8417C11.4526 15.704 11.086 15.704 10.7756 15.8417L6.59346 17.756C6.0796 17.9958 5.4429 17.8326 5.1569 17.3876C5.05094 17.2104 5.01343 17.0085 5.04813 16.8116L5.88456 12.7431C5.94457 12.4514 5.83111 12.1506 5.58356 11.9487L2.18627 9.05702C1.78212 8.7142 1.76993 8.14971 2.15907 7.79453C2.16751 7.78711 2.17689 7.77887 2.18627 7.77063C2.34755 7.62642 2.55947 7.53494 2.78827 7.51105L7.47678 6.91029C7.81435 6.86826 8.10785 6.6845 8.26257 6.41585L10.2749 2.72233C10.454 2.40588 10.8253 2.20893 11.2285 2.21717H11.3542C11.7039 2.25425 12.0087 2.44461 12.1653 2.72233" fill="#FAC412"/>
<path d="M11.2425 15.739C11.0609 15.744 10.884 15.7868 10.7249 15.8635L6.56318 17.7735C6.05396 17.987 5.44459 17.8213 5.15909 17.3935C5.05332 17.2187 5.01494 17.0184 5.05051 16.8222L5.88173 12.7624C5.93789 12.4672 5.82556 12.1672 5.58125 11.9595L2.18244 9.06851C1.779 8.72146 1.77151 8.15185 2.16653 7.79656C2.17214 7.79161 2.17682 7.78749 2.18244 7.78337C2.34344 7.64323 2.55125 7.55091 2.77496 7.52206L7.4674 6.91535C7.80719 6.87743 8.10205 6.69113 8.25182 6.42074L10.2915 2.68074C10.4852 2.37903 10.8569 2.19932 11.25 2.21828C11.2425 2.46311 11.2425 15.5725 11.2425 15.739" fill="#FAC412"/>
</svg>
