<svg width="14" height="15" viewBox="0 0 14 15" fill="none" xmlns="http://www.w3.org/2000/svg">
<path d="M8.52489 14.3002C8.27984 14.3002 8.05364 14.1618 7.94314 13.9408L6.01394 10.0824C5.90799 9.87046 5.92619 9.61696 6.06074 9.42131L9.17489 5.20021L4.95314 8.31371C4.75749 8.44891 4.50399 8.46581 4.29209 8.36051L0.434339 6.43196C0.202939 6.31561 0.061889 6.07316 0.076189 5.81446C0.089839 5.55576 0.256889 5.32956 0.499989 5.24051L12.85 0.69051C13.0872 0.60406 13.3544 0.66061 13.5344 0.84066C13.7138 1.01941 13.7723 1.28721 13.6846 1.52511L9.13459 13.8751C9.04489 14.1182 8.81934 14.2853 8.56064 14.2989C8.54894 14.2996 8.53659 14.3002 8.52489 14.3002Z" fill="white"/>
</svg>
