<svg width="22" height="22" viewBox="0 0 22 22" fill="none" xmlns="http://www.w3.org/2000/svg">
<g opacity="0.9">
<path d="M11.575 2.5401V1.58126C11.575 1.41919 11.5106 1.26375 11.396 1.14914C11.2814 1.03454 11.1259 0.970154 10.9639 0.970154C10.8018 0.970154 10.6463 1.03454 10.5317 1.14914C10.4171 1.26375 10.3527 1.41919 10.3527 1.58126V2.5456C5.55063 2.87926 1.74463 6.88968 1.74463 11.7752C1.74463 16.8777 5.89682 21.0299 11.0002 21.0299C16.1036 21.0299 20.2558 16.8777 20.2558 11.7752C20.2558 6.86524 16.4116 2.83801 11.575 2.5401V2.5401ZM11.0002 19.8077C6.57057 19.8077 2.96685 16.2039 2.96685 11.7752C2.96685 7.34588 6.57057 3.74246 11.0002 3.74246C15.4298 3.74246 19.0336 7.34588 19.0336 11.7752C19.0336 16.2039 15.4298 19.8077 11.0002 19.8077Z" fill="#363853"/>
<path d="M7.86299 17.3216C5.86802 16.1902 4.62869 14.0644 4.62869 11.7749C4.62869 11.6056 4.49211 11.4693 4.32313 11.4693C4.15416 11.4693 4.01758 11.6056 4.01758 11.7749C4.01758 14.2841 5.37577 16.6133 7.56172 17.8536C7.63226 17.8935 7.71579 17.9038 7.79392 17.8822C7.87205 17.8606 7.93839 17.8088 7.97834 17.7383C8.01829 17.6677 8.02859 17.5842 8.00695 17.506C7.98532 17.4279 7.93354 17.3616 7.86299 17.3216Z" fill="#363853"/>
<path d="M9.52917 18.1598C9.41085 18.129 9.29337 18.0949 9.17687 18.0578C9.10015 18.0348 9.01748 18.0429 8.94666 18.0802C8.87583 18.1176 8.82251 18.1813 8.79816 18.2576C8.77381 18.3339 8.78038 18.4167 8.81647 18.4882C8.85255 18.5597 8.91525 18.6141 8.99109 18.6399C9.1182 18.6808 9.24592 18.7175 9.3764 18.7508C9.45484 18.771 9.53811 18.7593 9.6079 18.7181C9.67769 18.677 9.72829 18.6098 9.74856 18.5314C9.75862 18.4926 9.76092 18.4522 9.75533 18.4125C9.74974 18.3728 9.73637 18.3346 9.71599 18.3001C9.69561 18.2656 9.66861 18.2354 9.63656 18.2113C9.6045 18.1873 9.56801 18.1698 9.52917 18.1598Z" fill="#363853"/>
<path d="M18.8858 5.72794C19.0005 5.84236 19.1561 5.90652 19.3181 5.90629C19.4802 5.90606 19.6355 5.84146 19.7499 5.72671C19.8643 5.61196 19.9285 5.45646 19.9283 5.2944C19.928 5.13235 19.8634 4.97703 19.7487 4.8626L18.1619 3.27983C18.1051 3.22311 18.0377 3.17814 17.9636 3.1475C17.8894 3.11686 17.8099 3.10114 17.7296 3.10126C17.6494 3.10137 17.5699 3.11731 17.4958 3.14816C17.4217 3.17901 17.3544 3.22417 17.2978 3.28105C17.1835 3.39585 17.1194 3.55134 17.1196 3.71336C17.1199 3.87538 17.1844 4.03068 17.299 4.14516L18.8858 5.72794V5.72794Z" fill="#363853"/>
<path d="M11.5748 11.6612V6.77571C11.5748 6.61363 11.5104 6.45819 11.3958 6.34359C11.2812 6.22898 11.1257 6.1646 10.9636 6.1646C10.8016 6.1646 10.6461 6.22898 10.5315 6.34359C10.4169 6.45819 10.3525 6.61363 10.3525 6.77571V11.9252C10.3525 12.0936 10.4402 12.254 10.5625 12.3692L12.3509 14.0406C12.4691 14.1518 12.6198 14.2074 12.7704 14.2074C12.8522 14.2075 12.9332 14.1905 13.0081 14.1575C13.083 14.1244 13.1501 14.0761 13.2052 14.0155C13.4377 13.7699 13.417 13.3833 13.1716 13.1517L11.5748 11.6612V11.6612Z" fill="#363853"/>
</g>
</svg>
